<svg width="512" height="512" viewBox="0 0 64 64" fill="none" xmlns="http://www.w3.org/2000/svg"><circle cx="32" cy="32" r="32" fill="#8B4C4A"/><g clip-path="url(#a)" fill="#fff"><path d="M46.828 12.267h-10.23a5.95 5.95 0 0 0-5.745 4.468l-3.045 11.883c-.65 2.437-2.862 4.164-5.4 4.164H9.318c-.954 0-1.746.792-1.563 1.706.791 3.94 4.283 6.927 8.464 6.927h8.322a8.61 8.61 0 0 0 8.322-6.378c.325-1.24 1.32-2.255 2.599-2.255h8.971c1.015 0 1.908-.69 2.152-1.666l3.694-14.38a3.563 3.563 0 0 0-3.45-4.47m-1.097 6.296a1.46 1.46 0 0 1-1.42 1.097h-9.54c-.569 0-.995-.548-.833-1.097a1.46 1.46 0 0 1 1.421-1.096h9.54c.569 0 .974.548.832 1.096"/><path d="M39.114 49.6H36.74a2.604 2.604 0 0 1-2.598-2.6v-3.006c0-1.422 1.157-2.6 2.598-2.6H26.063a2.604 2.604 0 0 1 2.598 2.6v3.007c0 1.421-1.157 2.6-2.599 2.6h-2.374c-.954 0-1.726.771-1.726 1.726v.386H40.84v-.386c0-.934-.772-1.727-1.726-1.727"/></g><defs><clipPath id="a"><path fill="#fff" d="M7.733 12.267H50.4v39.467H7.733z"/></clipPath></defs></svg>